<?xml version="1.0" encoding="utf-8"?>
<!-- Generator: Adobe Illustrator 16.0.0, SVG Export Plug-In . SVG Version: 6.00 Build 0)  -->
<!DOCTYPE svg PUBLIC "-//W3C//DTD SVG 1.1//EN" "http://www.w3.org/Graphics/SVG/1.1/DTD/svg11.dtd">
<svg version="1.1" id="Layer_1" xmlns="http://www.w3.org/2000/svg" xmlns:xlink="http://www.w3.org/1999/xlink" x="0px" y="0px"
	 width="50px" height="50px" viewBox="0 0 50 50" enable-background="new 0 0 50 50" xml:space="preserve">
<g>
	<path fill="#E8F0F7" d="M39.572,24.896c0,8.104-6.57,14.676-14.676,14.676c-8.106,0-14.676-6.571-14.676-14.676
		c0-8.105,6.57-14.676,14.676-14.676C33.002,10.22,39.572,16.791,39.572,24.896z"/>
	<path fill="#E8F0F7" d="M11.785,13.112c0.418-0.465,0.861-0.908,1.326-1.326L8.648,7.323c-0.366-0.366-0.959-0.366-1.326,0
		s-0.366,0.959,0,1.326L11.785,13.112z"/>
	<path fill="#E8F0F7" d="M24.896,7.266c0.35,0,0.696,0.013,1.042,0.033V0.938C25.938,0.419,25.518,0,25,0s-0.938,0.419-0.938,0.938
		v6.349C24.339,7.273,24.617,7.266,24.896,7.266z"/>
	<path fill="#E8F0F7" d="M38.104,13.223l4.574-4.574c0.367-0.366,0.367-0.959,0-1.326c-0.365-0.366-0.959-0.366-1.326,0
		l-4.561,4.561C37.252,12.307,37.689,12.754,38.104,13.223z"/>
	<path fill="#E8F0F7" d="M7.265,24.896c0-0.28,0.008-0.558,0.021-0.834H0.938C0.419,24.062,0,24.482,0,25s0.419,0.938,0.938,0.938
		h6.361C7.278,25.593,7.265,25.246,7.265,24.896z"/>
	<path fill="#E8F0F7" d="M11.884,36.791l-4.562,4.562c-0.366,0.366-0.366,0.96,0,1.325c0.183,0.184,0.423,0.275,0.663,0.275
		c0.24,0,0.479-0.092,0.663-0.275l4.575-4.574C12.754,37.688,12.307,37.252,11.884,36.791z"/>
	<path fill="#E8F0F7" d="M38.006,36.682c-0.418,0.465-0.861,0.906-1.326,1.325l4.672,4.671c0.184,0.184,0.424,0.275,0.664,0.275
		c0.238,0,0.479-0.092,0.662-0.275c0.367-0.365,0.367-0.959,0-1.325L38.006,36.682z"/>
	<path fill="#E8F0F7" d="M49.062,24.062h-6.557c0.012,0.276,0.021,0.554,0.021,0.834c0,0.35-0.014,0.696-0.033,1.041h6.568
		C49.58,25.938,50,25.518,50,25S49.58,24.062,49.062,24.062z"/>
	<path fill="#E8F0F7" d="M24.896,42.525c-0.279,0-0.557-0.008-0.833-0.021v6.558C24.062,49.58,24.482,50,25,50
		s0.938-0.42,0.938-0.938v-6.57C25.592,42.513,25.246,42.525,24.896,42.525z"/>
</g>
</svg>
